<mxfile host="app.diagrams.net" modified="2023-10-09T00:44:58.403Z" agent="Mozilla/5.0 (Macintosh; Intel Mac OS X 10_15_7) AppleWebKit/537.36 (KHTML, like Gecko) Chrome/117.0.0.0 Safari/537.36" version="22.0.0" etag="6sNCB17bAxYFu70eD-DK" type="github">
  <diagram name="Page-1" id="tmUIB9Mfei0qjDSWE34u">
    <mxGraphModel>
      <root>
        <mxCell id="0" />
        <mxCell id="1" parent="0" />
      </root>
    </mxGraphModel>
  </diagram>
</mxfile>
